<?xml version="1.0" encoding="utf-8"?>
<!-- Generator: Adobe Illustrator 17.1.0, SVG Export Plug-In . SVG Version: 6.00 Build 0)  -->
<!DOCTYPE svg PUBLIC "-//W3C//DTD SVG 1.1//EN" "http://www.w3.org/Graphics/SVG/1.1/DTD/svg11.dtd">
<svg version="1.1" xmlns="http://www.w3.org/2000/svg" xmlns:xlink="http://www.w3.org/1999/xlink" x="0px" y="0px"
	 viewBox="0 0 378 252" enable-background="new 0 0 378 252" xml:space="preserve">
<g id="background" display="none">
	<rect display="inline" fill="#F608FF" width="378" height="252"/>
</g>
<g id="Logo">
	<g>
		<path fill-rule="evenodd" clip-rule="evenodd" d="M60.85,194.319c0.889-2.858,1.674-5.394,2.467-7.927
			c0.875-2.797,1.757-5.592,2.636-8.387c0.106-0.338,0.228-0.672,0.318-1.015c0.413-1.586,1.401-2.146,2.953-1.664
			c1.203,0.374,1.691,1.523,1.003,2.915c-1.551,3.141-2.385,6.476-3.108,9.877c-0.359,1.689-1.233,3.262-1.682,4.94
			c-0.613,2.288-1.229,4.605-1.49,6.949c-0.201,1.8-0.838,2.081-2.254,2.473c-1.165,0.322-1.884-0.646-2.381-1.581
			c-0.369-0.695-0.623-1.457-0.876-2.207c-1.196-3.555-2.375-7.116-3.674-11.021c-0.66,1.71-1.191,3.137-1.761,4.549
			c-0.516,1.277-1.122,2.519-1.6,3.81c-0.637,1.721-1.081,3.522-1.831,5.189c-0.272,0.604-1.173,1.254-1.81,1.278
			c-0.703,0.027-1.699-0.464-2.087-1.048c-0.557-0.84-0.776-1.95-0.969-2.977c-0.616-3.277-1.224-6.56-1.696-9.86
			c-0.304-2.13-0.339-4.298-0.544-6.444c-0.105-1.103-0.323-2.195-0.479-3.294c-0.113-0.798,0.336-1.04,1.047-1.095
			c1.611-0.126,2.567,0.431,2.82,1.978c0.456,2.783,0.736,5.595,1.166,8.383c0.247,1.604,0.644,3.185,1.256,4.856
			c0.618-1.521,1.239-3.041,1.855-4.563c0.95-2.345,1.904-4.688,2.842-7.037c0.359-0.899,1.079-0.997,1.876-0.862
			c0.866,0.147,1.914-0.013,2.226,1.199c0.485,1.882,0.93,3.777,1.492,5.637C59.238,189.596,60.014,191.793,60.85,194.319z"/>
		<path fill-rule="evenodd" clip-rule="evenodd" d="M303.371,189.775c-0.153,1.41-0.308,2.82-0.459,4.23
			c-0.202,1.88-0.421,3.725-0.256,5.663c0.099,1.161-0.004,2.929-1.714,3.606c-1.187,0.469-2.042,0.278-2.545-0.913
			c-0.313-0.742-0.512-1.621-0.452-2.416c0.331-4.375,0.771-8.741,1.145-13.113c0.177-2.067,0.332-4.137,0.416-6.209
			c0.048-1.19-0.098-2.386-0.1-3.579c-0.004-2.249,1.473-3.231,3.575-2.401c0.914,0.361,1.538,0.884,1.781,1.974
			c0.414,1.857,1.14,3.643,1.574,5.496c0.301,1.285,0.219,2.658,0.505,3.949c0.539,2.435,1.219,4.838,1.84,7.254
			c0.141,0.02,0.282,0.041,0.423,0.061c0.243-0.864,0.533-1.717,0.721-2.593c0.45-2.098,0.891-4.2,1.264-6.313
			c0.448-2.537,0.829-5.086,1.224-7.633c0.176-1.134,0.812-1.818,1.953-1.844c1.051-0.024,1.884,0.466,2.091,1.574
			c0.151,0.808,0.294,1.669,0.176,2.466c-0.388,2.625-0.886,5.235-1.372,7.845c-0.078,0.418-0.373,0.793-0.464,1.211
			c-0.497,2.28-1.017,4.557-1.423,6.854c-0.392,2.218-0.652,4.46-0.978,6.69c-0.188,1.286-1.665,2.342-2.985,1.735
			c-1.012-0.465-2.151-1.514-2.422-2.522c-0.39-1.449-0.592-2.848-1.351-4.259c-0.897-1.666-1.128-3.69-1.64-5.562
			c-0.114-0.414-0.2-0.836-0.299-1.254C303.523,189.773,303.447,189.774,303.371,189.775z"/>
		<path fill-rule="evenodd" clip-rule="evenodd" d="M236.399,193.797c0.087-0.906,0.2-1.573,0.207-2.241
			c0.028-2.791,0.107-5.571,0.49-8.348c0.342-2.479,0.428-4.993,0.713-7.481c0.163-1.423,0.62-1.699,1.973-1.494
			c1.376,0.208,2.349,1.243,2.263,2.326c-0.079,0.994-0.084,1.995-0.11,2.994c-0.018,0.666,0.088,1.353-0.04,1.994
			c-0.747,3.736-1.01,7.516-1.227,11.311c-0.141,2.455-0.529,4.894-0.797,7.342c-0.074,0.676,0.048,1.425-0.206,2.02
			c-0.48,1.127-1.511,1.481-2.687,1.31c-1.058-0.154-1.925-1.091-2.072-2.177c-0.242-1.798-0.898-3.397-1.832-4.979
			c-0.939-1.591-1.449-3.431-2.183-5.146c-0.708-1.654-1.461-3.288-2.195-4.931c-0.177,0.035-0.354,0.071-0.531,0.106
			c0,0.48,0.011,0.959-0.002,1.438c-0.064,2.32-0.095,4.641-0.224,6.958c-0.048,0.862-0.359,1.706-0.495,2.566
			c-0.253,1.601-0.434,3.214-0.709,4.811c-0.121,0.701-0.313,1.426-1.303,1.421c-0.952-0.005-1.727-0.084-2.289-1.105
			c-0.744-1.351-0.449-2.681-0.157-3.964c0.852-3.753,1.299-7.499,0.995-11.368c-0.19-2.419,0.06-4.876,0.173-7.313
			c0.04-0.862,0.099-1.852,1.271-2.011c1.36-0.184,2.953-0.011,3.46,1.015c0.806,1.629,1.666,3.232,2.466,4.864
			c1.483,3.025,2.936,6.064,4.411,9.092C235.898,193.082,236.094,193.327,236.399,193.797z"/>
		<path fill-rule="evenodd" clip-rule="evenodd" d="M276.971,193.529c-1.9-0.104-3.999-0.22-6.258-0.344
			c-0.078,1.279-0.126,2.448-0.225,3.613c-0.149,1.742-0.338,3.481-0.503,5.222c-0.105,1.109-1.105,1.426-1.841,1.633
			c-0.539,0.152-1.439-0.009-1.825-0.941c-0.484-1.168-1.162-2.163-0.5-3.568c0.384-0.815,0.255-1.882,0.316-2.839
			c0.262-4.143,0.463-8.291,0.782-12.429c0.156-2.021,0.526-4.026,0.785-6.04c0.076-0.591,0.133-1.187,0.153-1.782
			c0.043-1.29,0.833-2.192,1.996-2.238c0.873-0.034,2.4,1.431,2.301,2.359c-0.184,1.738-0.553,3.458-0.734,5.196
			c-0.214,2.063-0.323,4.138-0.454,6.209c-0.05,0.8,0.313,1.105,1.167,1.081c1.289-0.036,2.541-0.482,3.889-0.042
			c0.972,0.317,1.663-0.355,1.705-1.231c0.172-3.546,0.344-7.092,0.532-10.638c0.106-1.991,1.539-2.847,3.209-1.794
			c0.52,0.328,0.943,1.202,0.969,1.844c0.073,1.814-0.053,3.638-0.156,5.455c-0.24,4.256-0.601,8.508-0.731,12.766
			c-0.06,1.97,0.305,3.954,0.474,5.931c0.091,1.06-0.4,1.842-1.213,2.452c-1.098,0.825-2.228,0.492-2.942-0.717
			c-0.985-1.667-1.009-3.451-0.91-5.294C277.026,196.128,276.971,194.855,276.971,193.529z"/>
		<path fill-rule="evenodd" clip-rule="evenodd" d="M325.344,186.5c0.786,0.082,1.53,0.191,2.277,0.23
			c1.918,0.1,3.841,0.118,5.755,0.265c1.801,0.139,2.345,0.764,2.281,2.362c-0.034,0.859-1.271,1.909-2.42,1.919
			c-1.553,0.013-3.107-0.077-4.661-0.128c-0.279-0.009-0.557-0.061-0.837-0.073c-2.635-0.115-3.066,0.338-2.995,2.951
			c0.023,0.865-0.115,1.736-0.202,2.602c-0.124,1.248,0.107,1.582,1.338,1.629c1.56,0.059,3.122,0.053,4.683,0.058
			c1.273,0.004,2.57-0.176,3.814,0.01c1.786,0.267,3.348,1.188,2.927,2.816c-0.29,1.12-1.08,1.923-2.425,1.898
			c-2.251-0.041-4.497-0.302-6.748-0.343c-1.667-0.031-3.38-0.063-4.998,0.27c-2.336,0.48-3.625-0.835-3.843-2.954
			c-0.012-0.116-0.027-0.286,0.038-0.349c1.342-1.297,0.75-3.076,1.088-4.61c0.348-1.574,0.179-3.255,0.347-4.878
			c0.199-1.935,0.57-3.853,0.766-5.789c0.202-2.001,0.241-4.018,0.435-6.02c0.089-0.923,0.31-1.849,0.599-2.732
			c0.207-0.633,0.699-0.951,1.48-0.935c2.722,0.058,5.446,0.031,8.169,0.023c1.305-0.004,2.622-0.156,3.911-0.023
			c1.22,0.125,1.743,0.893,1.623,1.908c-0.142,1.204-0.987,1.988-2.101,2.04c-2.616,0.122-5.233,0.255-7.846,0.43
			c-1.17,0.078-1.558,0.697-1.794,2.532C325.805,183.175,325.584,184.736,325.344,186.5z"/>
		<path fill-rule="evenodd" clip-rule="evenodd" d="M7.433,184.773c-0.178,2.088-0.452,4.174-0.512,6.266
			c-0.091,3.153-0.04,6.309-0.035,9.465c0.002,1.249-0.8,2.516-1.642,2.535c-0.892,0.02-2.138-1.4-2.179-2.539
			c-0.035-0.959,0.026-1.923-0.017-2.882c-0.244-5.399,0.79-10.719,0.985-16.091c0.057-1.571,0.156-3.148,0.381-4.701
			c0.11-0.757,0.452-1.691,1.409-1.678c0.662,0.009,1.634,0.278,1.916,0.756c0.853,1.447,1.489,3.032,2.116,4.601
			c1.388,3.477,2.712,6.979,4.076,10.465c0.21,0.536,0.496,1.042,0.747,1.562c0.105-0.036,0.209-0.072,0.314-0.108
			c0.082-1.018,0.123-2.041,0.255-3.052c0.525-4.021,1.079-8.039,1.62-12.058c0.043-0.316,0.117-0.638,0.094-0.951
			c-0.074-0.988,0.178-1.636,1.341-1.64c1.642-0.005,2.571,0.531,2.508,1.709c-0.069,1.298-0.2,2.624-0.549,3.869
			c-0.91,3.25-1.255,6.547-1.418,9.909c-0.138,2.856-0.685,5.691-1.033,8.537c-0.073,0.593-0.116,1.196-0.088,1.791
			c0.036,0.775-0.223,1.278-0.969,1.59c-0.795,0.332-1.494,0.19-1.899-0.488c-0.68-1.138-1.248-2.347-1.805-3.554
			c-0.883-1.913-1.779-3.824-2.556-5.781c-0.848-2.137-1.565-4.325-2.339-6.491c-0.13-0.362-0.261-0.724-0.391-1.086
			C7.652,184.743,7.542,184.758,7.433,184.773z"/>
		<path fill-rule="evenodd" clip-rule="evenodd" d="M131.66,191.769c-0.499,3.057-0.922,5.647-1.383,8.471
			c-0.641,0.33-1.463,1.176-2.645,0.391c-0.774-0.514-1.4-2.094-1.223-3.09c0.83-4.692,1.718-9.376,2.425-14.086
			c0.268-1.786,0.124-3.637,0.135-5.459c0.011-1.689,0.656-2.38,2.31-2.547c1.856-0.188,3.703-0.606,5.558-0.63
			c1.412-0.018,2.833,0.42,3.882,1.541c1.994,2.129,3.218,4.629,3.603,7.529c0.252,1.893-1.029,3.106-1.991,4.456
			c-0.292,0.41-0.597,0.823-0.961,1.164c-0.456,0.428-0.974,0.791-1.476,1.169c-0.54,0.407-1.107,0.669-0.553,1.587
			c1.404,2.329,2.662,4.746,4.009,7.11c0.851,1.493-0.225,3.571-1.933,3.664c-0.684,0.038-2.068-1.314-2.356-2.423
			c-0.694-2.67-2.208-4.94-3.781-7.096C134.638,192.639,133.087,192.421,131.66,191.769z M132.414,187.989
			c1.368-0.067,2.492,0.046,3.512-0.229c0.75-0.202,1.35-0.932,2.038-1.396c2.412-1.627,3.058-3.546,1.172-5.84
			c-1.427-1.736-3.863-2.332-5.747-0.996c-0.145,0.103-0.311,0.287-0.324,0.445C132.846,182.5,132.65,185.029,132.414,187.989z"/>
		<path fill-rule="evenodd" clip-rule="evenodd" d="M154.171,191.113c-0.155,2.421-0.307,4.843-0.468,7.264
			c-0.058,0.876-0.137,1.751-0.205,2.627c-0.076,0.979-0.802,1.43-1.589,1.513c-0.528,0.056-1.268-0.225-1.633-0.616
			c-0.885-0.948-1.353-2.084-1.166-3.486c0.382-2.876,0.758-5.76,0.933-8.653c0.213-3.509,0.241-7.03,0.29-10.546
			c0.011-0.785-0.193-1.578-0.345-2.359c-0.197-1.006,0.056-1.564,1.194-1.716c2.523-0.337,3.867,1.016,3.538,3.527
			c-0.251,1.917-0.321,3.857-0.475,5.833c0.195-0.025,0.345,0.002,0.411-0.06c2.623-2.446,5.501-4.653,7.273-7.889
			c0.496-0.905,1.383-1.636,2.342-1.26c0.97,0.38,1.818,1.218,2.519,2.028c0.17,0.196-0.326,1.192-0.728,1.621
			c-2.496,2.667-5.046,5.285-7.594,7.904c-0.765,0.786-1.011,1.511-0.194,2.459c1.79,2.078,3.485,4.237,5.282,6.308
			c0.607,0.699,1.464,1.175,2.103,1.851c0.887,0.94,0.559,2.068,0.08,3.031c-0.204,0.41-1.009,0.874-1.393,0.769
			c-0.78-0.212-1.607-0.657-2.15-1.249c-1.663-1.813-3.209-3.734-4.781-5.629c-0.585-0.706-1.122-1.453-1.669-2.191
			c-0.348-0.47-0.673-0.959-1.009-1.439C154.548,190.875,154.359,190.994,154.171,191.113z"/>
		<path fill-rule="evenodd" clip-rule="evenodd" d="M123.856,184.704c-0.324,3.351-0.856,6.598-2.211,9.583
			c-0.704,1.551-2.154,2.747-3.125,4.198c-1.09,1.627-2.613,2.417-4.428,2.93c-1.632,0.461-3.179,0.073-4.251-0.925
			c-1.781-1.659-3.286-3.628-4.794-5.555c-0.334-0.427-0.185-1.225-0.274-1.85c-0.738-5.158,0.551-9.831,3.749-13.86
			c1.573-1.982,3.66-3.462,6.517-3.072c1.213,0.165,2.469,0.063,3.661,0.303c0.593,0.119,1.246,0.631,1.593,1.151
			c0.999,1.5,1.905,3.068,2.746,4.663C123.431,183.017,123.59,183.889,123.856,184.704z M119.549,186.352
			c-0.151-1.099-0.096-2.16-0.459-3.051c-1.005-2.471-2.362-4.155-5.248-2.835c-0.868,0.397-1.601,1.223-2.229,1.99
			c-1.916,2.341-2.804,5.137-3.036,8.092c-0.145,1.849,0.337,3.653,1.571,5.151c0.465,0.565,0.562,1.595,1.69,1.338
			c0.808-0.184,1.821-0.094,2.401-0.555C117.512,193.881,118.886,190.235,119.549,186.352z"/>
		<path fill-rule="evenodd" clip-rule="evenodd" d="M187.485,183.095c0.068,1.208-0.129,2.49,1.415,2.972
			c0.368,0.115,0.766,0.16,1.154,0.183c5.517,0.325,8.318,3.116,9.303,8.431c0.057,0.309,0.089,0.669-0.012,0.954
			c-0.735,2.078-1.194,4.35-2.38,6.136c-0.745,1.122-2.538,1.678-3.968,2.183c-1.672,0.59-3.41,0.237-5.159-0.089
			c-1.994-0.371-2.644-1.875-3.437-3.321c-0.438-0.799-0.812-1.651-1.082-2.52c-0.362-1.165,0.169-1.96,1.404-2.32
			c0.757-0.221,1.859,0.468,2.133,1.334c0.749,2.363,1.43,3.018,3.21,3.088c1.685,0.066,3.23-1.079,4.026-2.854
			c0.78-1.739,0.69-3.471-0.102-5.108c-0.572-1.183-1.887-1.187-3.032-1.342c-1.217-0.164-2.482-0.175-3.634-0.541
			c-0.802-0.255-1.624-0.866-2.134-1.545c-1.422-1.893-1.786-4.256-2.068-6.488c-0.199-1.577,0.436-3.276,0.807-4.896
			c0.09-0.394,0.563-0.748,0.934-1.019c0.992-0.724,1.966-1.511,3.056-2.056c1.42-0.711,2.949-1.175,4.534-0.377
			c1.171,0.59,2.347,1.171,3.502,1.789c0.823,0.44,1.522,1.104,1.245,2.086c-0.172,0.611-0.678,1.346-1.226,1.583
			c-0.862,0.373-1.738,0.068-2.432-0.737c-0.918-1.064-2.137-1.332-3.451-0.833c-1.245,0.472-2.221,1.196-2.281,2.722
			C187.777,181.373,187.598,182.233,187.485,183.095z"/>
		<path fill-rule="evenodd" clip-rule="evenodd" d="M253.798,174.485c3.142-0.214,5.019,1.629,6.697,3.709
			c0.729,0.903,0.737,2.729,0.081,3.22c-0.528,0.395-1.343,0.796-1.9,0.66c-0.617-0.151-1.394-0.822-1.563-1.418
			c-0.573-2.031-2.716-3.075-4.512-1.1c-1.442,1.585-2.412,3.221-2.084,5.464c0.198,1.354,0.826,2.074,2.211,2.198
			c0.673,0.06,1.342,0.215,2.013,0.217c2.717,0.009,5.104,3.073,5.581,5.132c0.651,2.807-0.919,7.711-3.773,9.411
			c-0.284,0.169-0.662,0.178-0.991,0.279c-0.716,0.22-1.444,0.413-2.14,0.687c-1.082,0.426-2.101,0.6-3.189-0.063
			c-0.889-0.542-1.858-0.968-2.822-1.369c-1.805-0.751-2.197-2.307-2.376-3.999c-0.142-1.343,0.945-1.653,1.829-1.762
			c0.562-0.069,1.259,0.449,1.8,0.837c0.76,0.546,1.357,1.347,2.159,1.797c0.913,0.512,3.51-0.335,4.113-1.245
			c0.918-1.386,1.538-3.445,0.347-4.499c-0.62-0.548-1.53-0.999-2.342-1.062c-4.01-0.311-6.542-2.974-6.932-7.025
			c-0.354-3.686,1.128-6.333,3.799-8.658C251.06,174.802,252.367,174.389,253.798,174.485z"/>
		<path fill-rule="evenodd" clip-rule="evenodd" d="M215.62,185.835c-0.131-0.776-0.432-1.973-0.507-3.183
			c-0.057-0.928,0.183-1.873,0.265-2.812c0.045-0.511,0.23-1.14,0.011-1.519c-0.526-0.911,0.107-1.149,0.659-1.425
			c1.609-0.803,3.568,0.42,3.557,2.192c-0.022,3.35-0.079,6.7-0.055,10.049c0.028,3.875-1.12,7.352-3.355,10.493
			c-1.883,2.645-4.283,3.538-7.46,2.634c-0.634-0.18-1.25-0.705-1.693-1.225c-1.409-1.655-2.406-3.602-2.798-5.707
			c-0.779-4.183-1.01-8.417-0.617-12.678c0.142-1.534,0.035-3.09,0.113-4.633c0.046-0.907-0.204-1.993,1.037-2.413
			c1.453-0.491,3.011,0.606,2.987,2.208c-0.035,2.397-0.008,4.813-0.301,7.184c-0.362,2.923,0.16,5.714,0.662,8.546
			c0.245,1.381,0.373,2.754,1.307,3.901c0.702,0.862,1.67,0.987,2.438,0.194c1.754-1.811,2.929-3.942,3.272-6.456
			C215.361,189.568,215.438,187.931,215.62,185.835z"/>
		<path fill-rule="evenodd" clip-rule="evenodd" d="M27.257,184.397c0.025,3.088,0.023,3.105,2.492,3.288
			c0.836,0.062,1.683-0.025,2.521,0.025c1.888,0.112,2.998,1.465,2.288,2.858c-0.221,0.434-0.847,0.898-1.315,0.928
			c-1.708,0.111-3.43,0.101-5.141,0.02c-0.92-0.044-1.404,0.284-1.403,1.156c0.002,1.55,0.042,3.104,0.185,4.645
			c0.025,0.266,0.632,0.67,0.982,0.682c2.08,0.069,4.163,0.025,6.245,0.053c1.485,0.02,2.394,1.03,2.021,2.381
			c-0.145,0.526-0.654,1.132-1.15,1.342c-1.01,0.427-2.051,0.61-3.255,0.382c-1.723-0.326-3.528-0.226-5.298-0.298
			c-2.165-0.087-3.246-0.759-3.824-2.543c-0.156-0.482-0.021-1.057-0.028-1.588c-0.008-0.619-0.077-1.241-0.028-1.854
			c0.156-1.985,0.406-3.964,0.52-5.952c0.129-2.254,0.124-4.516,0.236-6.772c0.028-0.573,0.341-1.128,0.412-1.705
			c0.194-1.583,0.291-3.178,0.519-4.755c0.049-0.337,0.451-0.835,0.754-0.886c1.189-0.201,2.402-0.323,3.609-0.345
			c2.482-0.046,4.965-0.013,7.447-0.006c1.041,0.003,2.333,0.839,2.313,1.628c-0.028,1.067-0.682,1.799-1.725,2.016
			c-0.79,0.165-1.617,0.172-2.429,0.209c-1.909,0.087-3.821,0.125-5.727,0.252c-0.229,0.015-0.574,0.43-0.62,0.701
			C27.584,181.864,27.384,183.482,27.257,184.397z"/>
		<path fill-rule="evenodd" clip-rule="evenodd" d="M93.406,185.599c1.271-1.699,2.449-3.285,3.639-4.861
			c1.846-2.444,3.697-4.883,5.552-7.32c0.526-0.691,2.134-0.742,2.962-0.107c1.139,0.873,1.466,1.961,0.757,2.859
			c-0.783,0.993-1.701,1.88-2.484,2.873c-2.213,2.809-4.638,5.497-6.477,8.536c-1.031,1.703-1.127,3.997-1.531,6.047
			c-0.307,1.555-0.457,3.143-0.63,4.721c-0.073,0.667-0.024,1.347-0.034,2.021c-0.017,1.046-0.005,2.093-0.067,3.136
			c-0.059,1.015-0.87,1.432-1.661,1.351c-0.662-0.069-1.506-0.488-1.858-1.023c-0.774-1.176-1.001-2.581-0.787-4.006
			c0.355-2.355,0.803-4.699,1.061-7.065c0.092-0.846-0.27-1.738-0.396-2.614c-0.31-2.144-1.693-3.741-2.851-5.42
			c-1.185-1.718-2.622-3.26-3.872-4.936c-0.489-0.656-0.839-1.444-1.106-2.221c-0.111-0.324,0.088-1.078,0.268-1.121
			c0.728-0.173,1.626-0.416,2.239-0.14c1.635,0.736,2.71,2.16,3.66,3.657C90.971,181.825,92.169,183.673,93.406,185.599z"/>
		<path fill-rule="evenodd" clip-rule="evenodd" d="M288.02,199.766c0.29-3.03,0.595-5.455,0.738-7.89
			c0.219-3.739,0.324-7.484,0.481-11.226c0.069-1.632,0.111-3.266,0.229-4.895c0.079-1.094,0.777-1.379,1.78-1.178
			c2.196,0.441,2.862,1.485,2.523,3.961c-0.097,0.706-0.162,1.418-0.212,2.13c-0.238,3.413-0.507,6.825-0.685,10.242
			c-0.151,2.898-0.127,5.806-0.316,8.7c-0.083,1.281-0.042,2.68-1.721,3.335c-0.868,0.338-1.424-0.007-1.686-0.462
			C288.573,201.482,288.246,200.337,288.02,199.766z"/>
	</g>
	<g>
		<path fill-rule="evenodd" clip-rule="evenodd" fill="#FFFFFF" d="M60.85,236.319c0.889-2.858,1.674-5.394,2.467-7.927
			c0.875-2.797,1.757-5.592,2.636-8.387c0.106-0.338,0.228-0.672,0.318-1.015c0.413-1.586,1.401-2.146,2.953-1.664
			c1.203,0.374,1.691,1.523,1.003,2.915c-1.551,3.141-2.385,6.476-3.108,9.877c-0.359,1.689-1.233,3.262-1.682,4.94
			c-0.613,2.288-1.229,4.605-1.49,6.949c-0.201,1.8-0.838,2.081-2.254,2.473c-1.165,0.322-1.884-0.646-2.381-1.581
			c-0.369-0.695-0.623-1.457-0.876-2.207c-1.196-3.555-2.375-7.116-3.674-11.021c-0.66,1.71-1.191,3.137-1.761,4.549
			c-0.516,1.277-1.122,2.519-1.6,3.81c-0.637,1.721-1.081,3.522-1.831,5.189c-0.272,0.604-1.173,1.254-1.81,1.278
			c-0.703,0.027-1.699-0.464-2.087-1.048c-0.557-0.84-0.776-1.95-0.969-2.977c-0.616-3.277-1.224-6.56-1.696-9.86
			c-0.304-2.13-0.339-4.298-0.544-6.444c-0.105-1.103-0.323-2.195-0.479-3.294c-0.113-0.798,0.336-1.04,1.047-1.095
			c1.611-0.126,2.567,0.431,2.82,1.978c0.456,2.783,0.736,5.595,1.166,8.383c0.247,1.604,0.644,3.185,1.256,4.856
			c0.618-1.521,1.239-3.041,1.855-4.563c0.95-2.345,1.904-4.688,2.842-7.037c0.359-0.899,1.079-0.997,1.876-0.862
			c0.866,0.147,1.914-0.013,2.226,1.199c0.485,1.882,0.93,3.777,1.492,5.637C59.238,231.596,60.014,233.793,60.85,236.319z"/>
		<path fill-rule="evenodd" clip-rule="evenodd" fill="#FFFFFF" d="M303.371,231.775c-0.153,1.41-0.308,2.82-0.459,4.23
			c-0.202,1.88-0.421,3.725-0.256,5.663c0.099,1.161-0.004,2.929-1.714,3.606c-1.187,0.469-2.042,0.278-2.545-0.913
			c-0.313-0.742-0.512-1.621-0.452-2.416c0.331-4.375,0.771-8.741,1.145-13.113c0.177-2.067,0.332-4.137,0.416-6.209
			c0.048-1.19-0.098-2.386-0.1-3.579c-0.004-2.249,1.473-3.231,3.575-2.401c0.914,0.361,1.538,0.884,1.781,1.974
			c0.414,1.857,1.14,3.643,1.574,5.496c0.301,1.285,0.219,2.658,0.505,3.949c0.539,2.435,1.219,4.838,1.84,7.254
			c0.141,0.02,0.282,0.041,0.423,0.061c0.243-0.864,0.533-1.717,0.721-2.593c0.45-2.098,0.891-4.2,1.264-6.313
			c0.448-2.537,0.829-5.086,1.224-7.633c0.176-1.134,0.812-1.818,1.953-1.844c1.051-0.024,1.884,0.466,2.091,1.574
			c0.151,0.808,0.294,1.669,0.176,2.466c-0.388,2.625-0.886,5.235-1.372,7.845c-0.078,0.418-0.373,0.793-0.464,1.211
			c-0.497,2.28-1.017,4.557-1.423,6.854c-0.392,2.218-0.652,4.46-0.978,6.69c-0.188,1.286-1.665,2.342-2.985,1.735
			c-1.012-0.465-2.151-1.514-2.422-2.522c-0.39-1.449-0.592-2.848-1.351-4.259c-0.897-1.666-1.128-3.69-1.64-5.562
			c-0.114-0.414-0.2-0.836-0.299-1.254C303.523,231.773,303.447,231.774,303.371,231.775z"/>
		<path fill-rule="evenodd" clip-rule="evenodd" fill="#FFFFFF" d="M236.399,235.797c0.087-0.906,0.2-1.573,0.207-2.241
			c0.028-2.791,0.107-5.571,0.49-8.348c0.342-2.479,0.428-4.993,0.713-7.481c0.163-1.423,0.62-1.699,1.973-1.494
			c1.376,0.208,2.349,1.243,2.263,2.326c-0.079,0.994-0.084,1.995-0.11,2.994c-0.018,0.666,0.088,1.353-0.04,1.994
			c-0.747,3.736-1.01,7.516-1.227,11.311c-0.141,2.455-0.529,4.894-0.797,7.342c-0.074,0.676,0.048,1.425-0.206,2.02
			c-0.48,1.127-1.511,1.481-2.687,1.31c-1.058-0.154-1.925-1.091-2.072-2.177c-0.242-1.798-0.898-3.397-1.832-4.979
			c-0.939-1.591-1.449-3.431-2.183-5.146c-0.708-1.654-1.461-3.288-2.195-4.931c-0.177,0.035-0.354,0.071-0.531,0.106
			c0,0.48,0.011,0.959-0.002,1.438c-0.064,2.32-0.095,4.641-0.224,6.958c-0.048,0.862-0.359,1.706-0.495,2.566
			c-0.253,1.601-0.434,3.214-0.709,4.811c-0.121,0.701-0.313,1.426-1.303,1.421c-0.952-0.005-1.727-0.084-2.289-1.105
			c-0.744-1.351-0.449-2.681-0.157-3.964c0.852-3.753,1.299-7.499,0.995-11.368c-0.19-2.419,0.06-4.876,0.173-7.313
			c0.04-0.862,0.099-1.852,1.271-2.011c1.36-0.184,2.953-0.011,3.46,1.015c0.806,1.629,1.666,3.232,2.466,4.864
			c1.483,3.025,2.936,6.064,4.411,9.092C235.898,235.082,236.094,235.327,236.399,235.797z"/>
		<path fill-rule="evenodd" clip-rule="evenodd" fill="#FFFFFF" d="M276.971,235.529c-1.9-0.104-3.999-0.22-6.258-0.344
			c-0.078,1.279-0.126,2.448-0.225,3.613c-0.149,1.742-0.338,3.481-0.503,5.222c-0.105,1.109-1.105,1.426-1.841,1.633
			c-0.539,0.152-1.439-0.009-1.825-0.941c-0.484-1.168-1.162-2.163-0.5-3.568c0.384-0.815,0.255-1.882,0.316-2.839
			c0.262-4.143,0.463-8.291,0.782-12.429c0.156-2.021,0.526-4.026,0.785-6.04c0.076-0.591,0.133-1.187,0.153-1.782
			c0.043-1.29,0.833-2.192,1.996-2.238c0.873-0.034,2.4,1.431,2.301,2.359c-0.184,1.738-0.553,3.458-0.734,5.196
			c-0.214,2.063-0.323,4.138-0.454,6.209c-0.05,0.8,0.313,1.105,1.167,1.081c1.289-0.036,2.541-0.482,3.889-0.042
			c0.972,0.317,1.663-0.355,1.705-1.231c0.172-3.546,0.344-7.092,0.532-10.638c0.106-1.991,1.539-2.847,3.209-1.794
			c0.52,0.328,0.943,1.202,0.969,1.844c0.073,1.814-0.053,3.638-0.156,5.455c-0.24,4.256-0.601,8.508-0.731,12.766
			c-0.06,1.97,0.305,3.954,0.474,5.931c0.091,1.06-0.4,1.842-1.213,2.452c-1.098,0.825-2.228,0.492-2.942-0.717
			c-0.985-1.667-1.009-3.451-0.91-5.294C277.026,238.128,276.971,236.855,276.971,235.529z"/>
		<path fill-rule="evenodd" clip-rule="evenodd" fill="#FFFFFF" d="M325.344,228.5c0.786,0.082,1.53,0.191,2.277,0.23
			c1.918,0.1,3.841,0.118,5.755,0.265c1.801,0.139,2.345,0.764,2.281,2.362c-0.034,0.859-1.271,1.909-2.42,1.919
			c-1.553,0.013-3.107-0.077-4.661-0.128c-0.279-0.009-0.557-0.061-0.837-0.073c-2.635-0.115-3.066,0.338-2.995,2.951
			c0.023,0.865-0.115,1.736-0.202,2.602c-0.124,1.248,0.107,1.582,1.338,1.629c1.56,0.059,3.122,0.053,4.683,0.058
			c1.273,0.004,2.57-0.176,3.814,0.01c1.786,0.267,3.348,1.188,2.927,2.816c-0.29,1.12-1.08,1.923-2.425,1.898
			c-2.251-0.041-4.497-0.302-6.748-0.343c-1.667-0.031-3.38-0.063-4.998,0.27c-2.336,0.48-3.625-0.835-3.843-2.954
			c-0.012-0.116-0.027-0.286,0.038-0.349c1.342-1.297,0.75-3.076,1.088-4.61c0.348-1.574,0.179-3.255,0.347-4.878
			c0.199-1.935,0.57-3.853,0.766-5.789c0.202-2.001,0.241-4.018,0.435-6.02c0.089-0.923,0.31-1.849,0.599-2.732
			c0.207-0.633,0.699-0.951,1.48-0.935c2.722,0.058,5.446,0.031,8.169,0.023c1.305-0.004,2.622-0.156,3.911-0.023
			c1.22,0.125,1.743,0.893,1.623,1.908c-0.142,1.204-0.987,1.988-2.101,2.04c-2.616,0.122-5.233,0.255-7.846,0.43
			c-1.17,0.078-1.558,0.697-1.794,2.532C325.805,225.175,325.584,226.736,325.344,228.5z"/>
		<path fill-rule="evenodd" clip-rule="evenodd" fill="#FFFFFF" d="M7.433,226.773c-0.178,2.088-0.452,4.174-0.512,6.266
			c-0.091,3.153-0.04,6.309-0.035,9.465c0.002,1.249-0.8,2.516-1.642,2.535c-0.892,0.02-2.138-1.4-2.179-2.539
			c-0.035-0.959,0.026-1.923-0.017-2.882c-0.244-5.399,0.79-10.719,0.985-16.091c0.057-1.571,0.156-3.148,0.381-4.701
			c0.11-0.757,0.452-1.691,1.409-1.678c0.662,0.009,1.634,0.278,1.916,0.756c0.853,1.447,1.489,3.032,2.116,4.601
			c1.388,3.477,2.712,6.979,4.076,10.465c0.21,0.536,0.496,1.042,0.747,1.562c0.105-0.036,0.209-0.072,0.314-0.108
			c0.082-1.018,0.123-2.041,0.255-3.052c0.525-4.021,1.079-8.039,1.62-12.058c0.043-0.316,0.117-0.638,0.094-0.951
			c-0.074-0.988,0.178-1.636,1.341-1.64c1.642-0.005,2.571,0.531,2.508,1.709c-0.069,1.298-0.2,2.624-0.549,3.869
			c-0.91,3.25-1.255,6.547-1.418,9.909c-0.138,2.856-0.685,5.691-1.033,8.537c-0.073,0.593-0.116,1.196-0.088,1.791
			c0.036,0.775-0.223,1.278-0.969,1.59c-0.795,0.332-1.494,0.19-1.899-0.488c-0.68-1.138-1.248-2.347-1.805-3.554
			c-0.883-1.913-1.779-3.824-2.556-5.781c-0.848-2.137-1.565-4.325-2.339-6.491c-0.13-0.362-0.261-0.724-0.391-1.086
			C7.652,226.743,7.542,226.758,7.433,226.773z"/>
		<path fill-rule="evenodd" clip-rule="evenodd" fill="#FFFFFF" d="M131.66,233.769c-0.499,3.057-0.922,5.647-1.383,8.471
			c-0.641,0.33-1.463,1.176-2.645,0.391c-0.774-0.514-1.4-2.094-1.223-3.09c0.83-4.692,1.718-9.376,2.425-14.086
			c0.268-1.786,0.124-3.637,0.135-5.459c0.011-1.689,0.656-2.38,2.31-2.547c1.856-0.188,3.703-0.606,5.558-0.63
			c1.412-0.018,2.833,0.42,3.882,1.541c1.994,2.129,3.218,4.629,3.603,7.529c0.252,1.893-1.029,3.106-1.991,4.456
			c-0.292,0.41-0.597,0.823-0.961,1.164c-0.456,0.428-0.974,0.791-1.476,1.169c-0.54,0.407-1.107,0.669-0.553,1.587
			c1.404,2.329,2.662,4.746,4.009,7.11c0.851,1.493-0.225,3.571-1.933,3.664c-0.684,0.038-2.068-1.314-2.356-2.423
			c-0.694-2.67-2.208-4.94-3.781-7.096C134.638,234.639,133.087,234.421,131.66,233.769z M132.414,229.989
			c1.368-0.067,2.492,0.046,3.512-0.229c0.75-0.202,1.35-0.932,2.038-1.396c2.412-1.627,3.058-3.546,1.172-5.84
			c-1.427-1.736-3.863-2.332-5.747-0.996c-0.145,0.103-0.311,0.287-0.324,0.445C132.846,224.5,132.65,227.029,132.414,229.989z"/>
		<path fill-rule="evenodd" clip-rule="evenodd" fill="#FFFFFF" d="M154.171,233.113c-0.155,2.421-0.307,4.843-0.468,7.264
			c-0.058,0.876-0.137,1.751-0.205,2.627c-0.076,0.979-0.802,1.43-1.589,1.513c-0.528,0.056-1.268-0.225-1.633-0.616
			c-0.885-0.948-1.353-2.084-1.166-3.486c0.382-2.876,0.758-5.76,0.933-8.653c0.213-3.509,0.241-7.03,0.29-10.546
			c0.011-0.785-0.193-1.578-0.345-2.359c-0.197-1.006,0.056-1.564,1.194-1.716c2.523-0.337,3.867,1.016,3.538,3.527
			c-0.251,1.917-0.321,3.857-0.475,5.833c0.195-0.025,0.345,0.002,0.411-0.06c2.623-2.446,5.501-4.653,7.273-7.889
			c0.496-0.905,1.383-1.636,2.342-1.26c0.97,0.38,1.818,1.218,2.519,2.028c0.17,0.196-0.326,1.192-0.728,1.621
			c-2.496,2.667-5.046,5.285-7.594,7.904c-0.765,0.786-1.011,1.511-0.194,2.459c1.79,2.078,3.485,4.237,5.282,6.308
			c0.607,0.699,1.464,1.175,2.103,1.851c0.887,0.94,0.559,2.068,0.08,3.031c-0.204,0.41-1.009,0.874-1.393,0.769
			c-0.78-0.212-1.607-0.657-2.15-1.249c-1.663-1.813-3.209-3.734-4.781-5.629c-0.585-0.706-1.122-1.453-1.669-2.191
			c-0.348-0.47-0.673-0.959-1.009-1.439C154.548,232.875,154.359,232.994,154.171,233.113z"/>
		<path fill-rule="evenodd" clip-rule="evenodd" fill="#FFFFFF" d="M123.856,226.704c-0.324,3.351-0.856,6.598-2.211,9.583
			c-0.704,1.551-2.154,2.747-3.125,4.198c-1.09,1.627-2.613,2.417-4.428,2.93c-1.632,0.461-3.179,0.073-4.251-0.925
			c-1.781-1.659-3.286-3.628-4.794-5.555c-0.334-0.427-0.185-1.225-0.274-1.85c-0.738-5.158,0.551-9.831,3.749-13.86
			c1.573-1.982,3.66-3.462,6.517-3.072c1.213,0.165,2.469,0.063,3.661,0.303c0.593,0.119,1.246,0.631,1.593,1.151
			c0.999,1.5,1.905,3.068,2.746,4.663C123.431,225.017,123.59,225.889,123.856,226.704z M119.549,228.352
			c-0.151-1.099-0.096-2.16-0.459-3.051c-1.005-2.471-2.362-4.155-5.248-2.835c-0.868,0.397-1.601,1.223-2.229,1.99
			c-1.916,2.341-2.804,5.137-3.036,8.092c-0.145,1.849,0.337,3.653,1.571,5.151c0.465,0.565,0.562,1.595,1.69,1.338
			c0.808-0.184,1.821-0.094,2.401-0.555C117.512,235.881,118.886,232.235,119.549,228.352z"/>
		<path fill-rule="evenodd" clip-rule="evenodd" fill="#FFFFFF" d="M187.485,225.095c0.068,1.208-0.129,2.49,1.415,2.972
			c0.368,0.115,0.766,0.16,1.154,0.183c5.517,0.325,8.318,3.116,9.303,8.431c0.057,0.309,0.089,0.669-0.012,0.954
			c-0.735,2.078-1.194,4.35-2.38,6.136c-0.745,1.122-2.538,1.678-3.968,2.183c-1.672,0.59-3.41,0.237-5.159-0.089
			c-1.994-0.371-2.644-1.875-3.437-3.321c-0.438-0.799-0.812-1.651-1.082-2.52c-0.362-1.165,0.169-1.96,1.404-2.32
			c0.757-0.221,1.859,0.468,2.133,1.334c0.749,2.363,1.43,3.018,3.21,3.088c1.685,0.066,3.23-1.079,4.026-2.854
			c0.78-1.739,0.69-3.471-0.102-5.108c-0.572-1.183-1.887-1.187-3.032-1.342c-1.217-0.164-2.482-0.175-3.634-0.541
			c-0.802-0.255-1.624-0.866-2.134-1.545c-1.422-1.893-1.786-4.256-2.068-6.488c-0.199-1.577,0.436-3.276,0.807-4.896
			c0.09-0.394,0.563-0.748,0.934-1.019c0.992-0.724,1.966-1.511,3.056-2.056c1.42-0.711,2.949-1.175,4.534-0.377
			c1.171,0.59,2.347,1.171,3.502,1.789c0.823,0.44,1.522,1.104,1.245,2.086c-0.172,0.611-0.678,1.346-1.226,1.583
			c-0.862,0.373-1.738,0.068-2.432-0.737c-0.918-1.064-2.137-1.332-3.451-0.833c-1.245,0.472-2.221,1.196-2.281,2.722
			C187.777,223.373,187.598,224.233,187.485,225.095z"/>
		<path fill-rule="evenodd" clip-rule="evenodd" fill="#FFFFFF" d="M253.798,216.485c3.142-0.214,5.019,1.629,6.697,3.709
			c0.729,0.903,0.737,2.729,0.081,3.22c-0.528,0.395-1.343,0.796-1.9,0.66c-0.617-0.151-1.394-0.822-1.563-1.418
			c-0.573-2.031-2.716-3.075-4.512-1.1c-1.442,1.585-2.412,3.221-2.084,5.464c0.198,1.354,0.826,2.074,2.211,2.198
			c0.673,0.06,1.342,0.215,2.013,0.217c2.717,0.009,5.104,3.073,5.581,5.132c0.651,2.807-0.919,7.711-3.773,9.411
			c-0.284,0.169-0.662,0.178-0.991,0.279c-0.716,0.22-1.444,0.413-2.14,0.687c-1.082,0.426-2.101,0.6-3.189-0.063
			c-0.889-0.542-1.858-0.968-2.822-1.369c-1.805-0.751-2.197-2.307-2.376-3.999c-0.142-1.343,0.945-1.653,1.829-1.762
			c0.562-0.069,1.259,0.449,1.8,0.837c0.76,0.546,1.357,1.347,2.159,1.797c0.913,0.512,3.51-0.335,4.113-1.245
			c0.918-1.386,1.538-3.445,0.347-4.499c-0.62-0.548-1.53-0.999-2.342-1.062c-4.01-0.311-6.542-2.974-6.932-7.025
			c-0.354-3.686,1.128-6.333,3.799-8.658C251.06,216.802,252.367,216.389,253.798,216.485z"/>
		<path fill-rule="evenodd" clip-rule="evenodd" fill="#FFFFFF" d="M215.62,227.835c-0.131-0.776-0.432-1.973-0.507-3.183
			c-0.057-0.928,0.183-1.873,0.265-2.812c0.045-0.511,0.23-1.14,0.011-1.519c-0.526-0.911,0.107-1.149,0.659-1.425
			c1.609-0.803,3.568,0.42,3.557,2.192c-0.022,3.35-0.079,6.7-0.055,10.049c0.028,3.875-1.12,7.352-3.355,10.493
			c-1.883,2.645-4.283,3.538-7.46,2.634c-0.634-0.18-1.25-0.705-1.693-1.225c-1.409-1.655-2.406-3.602-2.798-5.707
			c-0.779-4.183-1.01-8.417-0.617-12.678c0.142-1.534,0.035-3.09,0.113-4.633c0.046-0.907-0.204-1.993,1.037-2.413
			c1.453-0.491,3.011,0.606,2.987,2.208c-0.035,2.397-0.008,4.813-0.301,7.184c-0.362,2.923,0.16,5.714,0.662,8.546
			c0.245,1.381,0.373,2.754,1.307,3.901c0.702,0.862,1.67,0.987,2.438,0.194c1.754-1.811,2.929-3.942,3.272-6.456
			C215.361,231.568,215.438,229.931,215.62,227.835z"/>
		<path fill-rule="evenodd" clip-rule="evenodd" fill="#FFFFFF" d="M27.257,226.397c0.025,3.088,0.023,3.105,2.492,3.288
			c0.836,0.062,1.683-0.025,2.521,0.025c1.888,0.112,2.998,1.465,2.288,2.858c-0.221,0.434-0.847,0.898-1.315,0.928
			c-1.708,0.111-3.43,0.101-5.141,0.02c-0.92-0.044-1.404,0.284-1.403,1.156c0.002,1.55,0.042,3.104,0.185,4.645
			c0.025,0.266,0.632,0.67,0.982,0.682c2.08,0.069,4.163,0.025,6.245,0.053c1.485,0.02,2.394,1.03,2.021,2.381
			c-0.145,0.526-0.654,1.132-1.15,1.342c-1.01,0.427-2.051,0.61-3.255,0.382c-1.723-0.326-3.528-0.226-5.298-0.298
			c-2.165-0.087-3.246-0.759-3.824-2.543c-0.156-0.482-0.021-1.057-0.028-1.588c-0.008-0.619-0.077-1.241-0.028-1.854
			c0.156-1.985,0.406-3.964,0.52-5.952c0.129-2.254,0.124-4.516,0.236-6.772c0.028-0.573,0.341-1.128,0.412-1.705
			c0.194-1.583,0.291-3.178,0.519-4.755c0.049-0.337,0.451-0.835,0.754-0.886c1.189-0.201,2.402-0.323,3.609-0.345
			c2.482-0.046,4.965-0.013,7.447-0.006c1.041,0.003,2.333,0.839,2.313,1.628c-0.028,1.067-0.682,1.799-1.725,2.016
			c-0.79,0.165-1.617,0.172-2.429,0.209c-1.909,0.087-3.821,0.125-5.727,0.252c-0.229,0.015-0.574,0.43-0.62,0.701
			C27.584,223.864,27.384,225.482,27.257,226.397z"/>
		<path fill-rule="evenodd" clip-rule="evenodd" fill="#FFFFFF" d="M93.406,227.599c1.271-1.699,2.449-3.285,3.639-4.861
			c1.846-2.444,3.697-4.883,5.552-7.32c0.526-0.691,2.134-0.742,2.962-0.107c1.139,0.873,1.466,1.961,0.757,2.859
			c-0.783,0.993-1.701,1.88-2.484,2.873c-2.213,2.809-4.638,5.497-6.477,8.536c-1.031,1.703-1.127,3.997-1.531,6.047
			c-0.307,1.555-0.457,3.143-0.63,4.721c-0.073,0.667-0.024,1.347-0.034,2.021c-0.017,1.046-0.005,2.093-0.067,3.136
			c-0.059,1.015-0.87,1.432-1.661,1.351c-0.662-0.069-1.506-0.488-1.858-1.023c-0.774-1.176-1.001-2.581-0.787-4.006
			c0.355-2.355,0.803-4.699,1.061-7.065c0.092-0.846-0.27-1.738-0.396-2.614c-0.31-2.144-1.693-3.741-2.851-5.42
			c-1.185-1.718-2.622-3.26-3.872-4.936c-0.489-0.656-0.839-1.444-1.106-2.221c-0.111-0.324,0.088-1.078,0.268-1.121
			c0.728-0.173,1.626-0.416,2.239-0.14c1.635,0.736,2.71,2.16,3.66,3.657C90.971,223.825,92.169,225.673,93.406,227.599z"/>
		<path fill-rule="evenodd" clip-rule="evenodd" fill="#FFFFFF" d="M288.02,241.766c0.29-3.03,0.595-5.455,0.738-7.89
			c0.219-3.739,0.324-7.484,0.481-11.226c0.069-1.632,0.111-3.266,0.229-4.895c0.079-1.094,0.777-1.379,1.78-1.178
			c2.196,0.441,2.862,1.485,2.523,3.961c-0.097,0.706-0.162,1.418-0.212,2.13c-0.238,3.413-0.507,6.825-0.685,10.242
			c-0.151,2.898-0.127,5.806-0.316,8.7c-0.083,1.281-0.042,2.68-1.721,3.335c-0.868,0.338-1.424-0.007-1.686-0.462
			C288.573,243.482,288.246,242.337,288.02,241.766z"/>
	</g>
</g>
<g id="HamburgerBG">
</g>
<g id="Hamburger">
	<g>
		<rect x="137" y="140" width="21" height="3"/>
		<rect x="137" y="146" width="21" height="3"/>
		<rect x="137" y="152" width="21" height="3"/>
	</g>
	<g>
		<rect x="179" y="140" fill="#FFFFFF" width="21" height="3"/>
		<rect x="179" y="146" fill="#FFFFFF" width="21" height="3"/>
		<rect x="179" y="152" fill="#FFFFFF" width="21" height="3"/>
	</g>
</g>
<g id="Zoom">
	<g>
		<rect x="104" y="140" width="2" height="14"/>
		<rect x="98" y="146" width="14" height="2"/>
	</g>
</g>
<g id="Close">
	<line fill="none" stroke="#FFFFFF" stroke-width="2" stroke-miterlimit="10" x1="178" y1="94" x2="200" y2="116"/>
	<line fill="none" stroke="#FFFFFF" stroke-width="2" stroke-miterlimit="10" x1="178" y1="116" x2="200" y2="94"/>
</g>
<g id="Lazy_Load">
	<g>
		
			<rect x="139.636" y="95.182" transform="matrix(0.7071 -0.7071 0.7071 0.7071 -33.1834 130.2521)" fill="#FFFFFF" width="2" height="20"/>
		
			<rect x="152.364" y="95.182" transform="matrix(-0.7071 -0.7071 0.7071 -0.7071 187.4344 288.0018)" fill="#FFFFFF" width="2" height="20"/>
	</g>
</g>
<g id="Logo_Mini">
	<g>
		<path fill-rule="evenodd" clip-rule="evenodd" d="M12.766,99.908c-0.178,2.088-0.452,4.174-0.512,6.266
			c-0.091,3.153-0.04,6.309-0.035,9.465c0.002,1.249-0.8,2.516-1.642,2.535c-0.892,0.02-2.138-1.4-2.179-2.539
			c-0.035-0.959,0.026-1.923-0.017-2.882c-0.244-5.399,0.79-10.719,0.985-16.091c0.057-1.571,0.156-3.148,0.381-4.701
			c0.11-0.757,0.452-1.691,1.409-1.678c0.662,0.009,1.634,0.278,1.916,0.756c0.853,1.447,1.489,3.032,2.116,4.601
			c1.388,3.477,2.712,6.979,4.076,10.465c0.21,0.536,0.496,1.042,0.747,1.562c0.105-0.036,0.209-0.072,0.314-0.108
			c0.082-1.018,0.123-2.041,0.255-3.052c0.525-4.021,1.079-8.039,1.62-12.058c0.043-0.316,0.117-0.638,0.094-0.951
			c-0.074-0.988,0.178-1.636,1.341-1.64c1.642-0.005,2.571,0.531,2.508,1.709c-0.069,1.298-0.2,2.624-0.549,3.869
			c-0.91,3.25-1.255,6.547-1.418,9.909c-0.138,2.856-0.685,5.691-1.033,8.537c-0.073,0.593-0.116,1.196-0.088,1.791
			c0.036,0.775-0.223,1.278-0.969,1.59c-0.795,0.332-1.494,0.19-1.899-0.488c-0.68-1.138-1.248-2.347-1.805-3.554
			c-0.883-1.913-1.779-3.824-2.556-5.781c-0.848-2.137-1.565-4.325-2.339-6.491c-0.13-0.362-0.261-0.724-0.391-1.086
			C12.985,99.878,12.875,99.893,12.766,99.908z"/>
		<path fill-rule="evenodd" clip-rule="evenodd" d="M64.044,98.23c0.069,1.208-0.129,2.49,1.415,2.972
			c0.368,0.115,0.766,0.16,1.154,0.183c5.517,0.325,8.318,3.116,9.303,8.431c0.057,0.309,0.089,0.669-0.012,0.954
			c-0.735,2.078-1.194,4.35-2.38,6.136c-0.745,1.122-2.538,1.678-3.968,2.183c-1.672,0.59-3.41,0.237-5.159-0.089
			c-1.994-0.371-2.644-1.875-3.437-3.321c-0.438-0.799-0.812-1.651-1.082-2.52c-0.362-1.165,0.169-1.96,1.404-2.32
			c0.757-0.221,1.859,0.468,2.133,1.334c0.749,2.363,1.43,3.018,3.21,3.088c1.685,0.066,3.23-1.079,4.026-2.854
			c0.78-1.739,0.69-3.471-0.102-5.108c-0.572-1.183-1.887-1.187-3.032-1.342c-1.217-0.164-2.482-0.175-3.634-0.541
			c-0.802-0.255-1.624-0.866-2.134-1.545c-1.422-1.893-1.786-4.256-2.068-6.488c-0.199-1.577,0.436-3.276,0.806-4.896
			c0.09-0.394,0.563-0.748,0.934-1.019c0.992-0.724,1.966-1.511,3.056-2.056c1.42-0.711,2.949-1.175,4.534-0.377
			c1.171,0.59,2.347,1.171,3.502,1.789c0.823,0.44,1.521,1.104,1.245,2.086c-0.172,0.611-0.678,1.346-1.226,1.583
			c-0.862,0.373-1.738,0.068-2.432-0.737c-0.918-1.064-2.137-1.332-3.451-0.833c-1.245,0.472-2.221,1.196-2.281,2.722
			C64.337,96.508,64.158,97.368,64.044,98.23z"/>
		<path fill-rule="evenodd" clip-rule="evenodd" d="M42.259,100.734c1.271-1.699,2.449-3.285,3.639-4.861
			c1.846-2.444,3.697-4.883,5.552-7.32c0.526-0.691,2.134-0.742,2.962-0.107c1.139,0.873,1.466,1.961,0.757,2.859
			c-0.783,0.993-1.701,1.88-2.484,2.873c-2.213,2.809-4.638,5.497-6.477,8.536c-1.031,1.703-1.127,3.997-1.531,6.047
			c-0.307,1.555-0.457,3.143-0.63,4.721c-0.073,0.667-0.024,1.347-0.034,2.021c-0.017,1.046-0.005,2.093-0.067,3.136
			c-0.059,1.015-0.87,1.432-1.661,1.351c-0.662-0.069-1.506-0.488-1.858-1.023c-0.774-1.176-1.001-2.581-0.787-4.006
			c0.355-2.355,0.803-4.699,1.061-7.065c0.092-0.846-0.27-1.738-0.396-2.614c-0.31-2.144-1.693-3.741-2.851-5.42
			c-1.185-1.718-2.622-3.26-3.872-4.936c-0.489-0.656-0.839-1.444-1.106-2.221c-0.111-0.324,0.088-1.078,0.268-1.121
			c0.728-0.173,1.626-0.416,2.239-0.14c1.635,0.736,2.71,2.16,3.66,3.657C39.824,96.96,41.021,98.808,42.259,100.734z"/>
	</g>
	<g>
		<path fill-rule="evenodd" clip-rule="evenodd" fill="#FFFFFF" d="M12.766,141.908c-0.178,2.088-0.452,4.174-0.512,6.266
			c-0.091,3.153-0.04,6.309-0.035,9.465c0.002,1.249-0.8,2.516-1.642,2.535c-0.892,0.02-2.138-1.4-2.179-2.539
			c-0.035-0.959,0.026-1.923-0.017-2.882c-0.244-5.399,0.79-10.719,0.985-16.091c0.057-1.571,0.156-3.148,0.381-4.701
			c0.11-0.757,0.452-1.691,1.409-1.678c0.662,0.009,1.634,0.278,1.916,0.756c0.853,1.447,1.489,3.032,2.116,4.601
			c1.388,3.477,2.712,6.979,4.076,10.465c0.21,0.536,0.496,1.042,0.747,1.562c0.105-0.036,0.209-0.072,0.314-0.108
			c0.082-1.018,0.123-2.041,0.255-3.052c0.525-4.021,1.079-8.039,1.62-12.058c0.043-0.316,0.117-0.638,0.094-0.951
			c-0.074-0.988,0.178-1.636,1.341-1.64c1.642-0.005,2.571,0.531,2.508,1.709c-0.069,1.298-0.2,2.624-0.549,3.869
			c-0.91,3.25-1.255,6.547-1.418,9.909c-0.138,2.856-0.685,5.691-1.033,8.537c-0.073,0.593-0.116,1.196-0.088,1.791
			c0.036,0.775-0.223,1.278-0.969,1.59c-0.795,0.332-1.494,0.19-1.899-0.488c-0.68-1.138-1.248-2.347-1.805-3.554
			c-0.883-1.913-1.779-3.824-2.556-5.781c-0.848-2.137-1.565-4.325-2.339-6.491c-0.13-0.362-0.261-0.724-0.391-1.086
			C12.985,141.878,12.875,141.893,12.766,141.908z"/>
		<path fill-rule="evenodd" clip-rule="evenodd" fill="#FFFFFF" d="M64.044,140.23c0.069,1.208-0.129,2.49,1.415,2.972
			c0.368,0.115,0.766,0.16,1.154,0.183c5.517,0.325,8.318,3.116,9.303,8.431c0.057,0.309,0.089,0.669-0.012,0.954
			c-0.735,2.078-1.194,4.35-2.38,6.136c-0.745,1.122-2.538,1.678-3.968,2.183c-1.672,0.59-3.41,0.237-5.159-0.089
			c-1.994-0.371-2.644-1.875-3.437-3.321c-0.438-0.799-0.812-1.651-1.082-2.52c-0.362-1.165,0.169-1.96,1.404-2.32
			c0.757-0.221,1.859,0.468,2.133,1.334c0.749,2.363,1.43,3.018,3.21,3.088c1.685,0.066,3.23-1.079,4.026-2.854
			c0.78-1.739,0.69-3.471-0.102-5.108c-0.572-1.183-1.887-1.187-3.032-1.342c-1.217-0.164-2.482-0.175-3.634-0.541
			c-0.802-0.255-1.624-0.866-2.134-1.545c-1.422-1.893-1.786-4.256-2.068-6.488c-0.199-1.577,0.436-3.276,0.806-4.896
			c0.09-0.394,0.563-0.748,0.934-1.019c0.992-0.724,1.966-1.511,3.056-2.056c1.42-0.711,2.949-1.175,4.534-0.377
			c1.171,0.59,2.347,1.171,3.502,1.789c0.823,0.44,1.521,1.104,1.245,2.086c-0.172,0.611-0.678,1.346-1.226,1.583
			c-0.862,0.373-1.738,0.068-2.432-0.737c-0.918-1.064-2.137-1.332-3.451-0.833c-1.245,0.472-2.221,1.196-2.281,2.722
			C64.337,138.508,64.158,139.368,64.044,140.23z"/>
		<path fill-rule="evenodd" clip-rule="evenodd" fill="#FFFFFF" d="M42.259,142.734c1.271-1.699,2.449-3.285,3.639-4.861
			c1.846-2.444,3.697-4.883,5.552-7.32c0.526-0.691,2.134-0.742,2.962-0.107c1.139,0.873,1.466,1.961,0.757,2.859
			c-0.783,0.993-1.701,1.88-2.484,2.873c-2.213,2.809-4.638,5.497-6.477,8.536c-1.031,1.703-1.127,3.997-1.531,6.047
			c-0.307,1.555-0.457,3.143-0.63,4.721c-0.073,0.667-0.024,1.347-0.034,2.021c-0.017,1.046-0.005,2.093-0.067,3.136
			c-0.059,1.015-0.87,1.432-1.661,1.351c-0.662-0.069-1.506-0.488-1.858-1.023c-0.774-1.176-1.001-2.581-0.787-4.006
			c0.355-2.355,0.803-4.699,1.061-7.065c0.092-0.846-0.27-1.738-0.396-2.614c-0.31-2.144-1.693-3.741-2.851-5.42
			c-1.185-1.718-2.622-3.26-3.872-4.936c-0.489-0.656-0.839-1.444-1.106-2.221c-0.111-0.324,0.088-1.078,0.268-1.121
			c0.728-0.173,1.626-0.416,2.239-0.14c1.635,0.736,2.71,2.16,3.66,3.657C39.824,138.96,41.021,140.808,42.259,142.734z"/>
	</g>
</g>
<g id="Svpply">
	<path opacity="0.85" fill="#010102" d="M150,0v30h30V0H150z M164,14h-3v1h2v1h1v1h-1v1h-3v-1h3v-1h-2v-1h-1v-1h1v-1h3V14z M170,16
		h-1v1h-1v1h-1v-1h-1v-1h-1v-3h1v3h1v1h1v-1h1v-3h1V16z"/>
	<path fill="#E5E5E5" d="M150,30v30h30V30H150z M164,44h-3v1h2v1h1v1h-1v1h-3v-1h3v-1h-2v-1h-1v-1h1v-1h3V44z M170,46h-1v1h-1v1h-1
		v-1h-1v-1h-1v-3h1v3h1v1h1v-1h1v-3h1V46z"/>
</g>
<g id="Pinterest">
	<path opacity="0.85" fill="#010102" d="M120,0v30h30V0H120z M135,22.143c-0.703,0-1.382-0.103-2.024-0.293
		c0.271-0.429,0.567-0.979,0.719-1.53c0.088-0.318,0.502-1.963,0.502-1.963c0.248,0.473,0.974,0.89,1.745,0.89
		c2.296,0,3.854-2.093,3.854-4.895c0-2.118-1.795-4.092-4.522-4.092c-3.394,0-5.105,2.433-5.105,4.462
		c0,1.229,0.465,2.321,1.463,2.729c0.164,0.067,0.31,0.002,0.358-0.179c0.033-0.125,0.111-0.442,0.145-0.573
		c0.048-0.179,0.03-0.242-0.103-0.398c-0.287-0.34-0.471-0.779-0.471-1.401c0-1.805,1.35-3.421,3.516-3.421
		c1.918,0,2.972,1.172,2.972,2.737c0,2.059-0.911,3.798-2.265,3.798c-0.747,0-1.306-0.618-1.127-1.376
		c0.214-0.905,0.631-1.882,0.631-2.535c0-0.584-0.314-1.072-0.964-1.072c-0.764,0-1.378,0.791-1.378,1.849
		c0,0.674,0.228,1.13,0.228,1.13s-0.782,3.312-0.919,3.892c-0.128,0.543-0.144,1.141-0.124,1.64
		c-2.517-1.105-4.276-3.617-4.276-6.542c0-3.945,3.198-7.143,7.143-7.143c3.944,0,7.142,3.198,7.142,7.143
		C142.143,18.945,138.945,22.143,135,22.143z"/>
	<path fill="#E5E5E5" d="M120,30v30h30V30H120z M135,52.143c-0.703,0-1.382-0.103-2.024-0.293c0.271-0.429,0.567-0.979,0.719-1.53
		c0.088-0.318,0.502-1.963,0.502-1.963c0.248,0.473,0.974,0.89,1.745,0.89c2.296,0,3.854-2.093,3.854-4.895
		c0-2.118-1.795-4.092-4.522-4.092c-3.394,0-5.105,2.433-5.105,4.462c0,1.229,0.465,2.321,1.463,2.729
		c0.164,0.067,0.31,0.002,0.358-0.179c0.033-0.125,0.111-0.442,0.145-0.573c0.048-0.179,0.03-0.242-0.103-0.398
		c-0.287-0.34-0.471-0.779-0.471-1.401c0-1.805,1.35-3.421,3.516-3.421c1.918,0,2.972,1.172,2.972,2.737
		c0,2.059-0.911,3.798-2.265,3.798c-0.747,0-1.306-0.618-1.127-1.376c0.214-0.905,0.631-1.882,0.631-2.535
		c0-0.584-0.314-1.072-0.964-1.072c-0.764,0-1.378,0.791-1.378,1.849c0,0.674,0.228,1.13,0.228,1.13s-0.782,3.312-0.919,3.892
		c-0.128,0.543-0.144,1.141-0.124,1.64c-2.517-1.105-4.276-3.617-4.276-6.542c0-3.945,3.198-7.143,7.143-7.143
		c3.944,0,7.142,3.198,7.142,7.143C142.143,48.945,138.945,52.143,135,52.143z"/>
</g>
<g id="Twitter">
	<g opacity="0.85">
		<g>
			<path fill="#010102" d="M90,0v30h30V0H90z M109.893,12.402c0.005,0.108,0.007,0.217,0.007,0.327c0,3.336-2.539,7.183-7.183,7.183
				c-1.426,0-2.753-0.418-3.87-1.134c0.197,0.023,0.398,0.035,0.602,0.035c1.183,0,2.271-0.404,3.135-1.081
				c-1.105-0.02-2.037-0.75-2.358-1.753c0.154,0.029,0.312,0.045,0.475,0.045c0.23,0,0.453-0.031,0.665-0.089
				c-1.155-0.232-2.025-1.252-2.025-2.475c0-0.011,0-0.021,0-0.032c0.34,0.189,0.73,0.303,1.143,0.316
				c-0.677-0.453-1.123-1.225-1.123-2.101c0-0.463,0.124-0.896,0.342-1.269c1.245,1.527,3.105,2.532,5.203,2.638
				c-0.043-0.185-0.065-0.377-0.065-0.575c0-1.394,1.13-2.524,2.525-2.524c0.726,0,1.382,0.307,1.843,0.797
				c0.575-0.113,1.115-0.323,1.603-0.613c-0.188,0.589-0.589,1.084-1.11,1.397c0.511-0.061,0.997-0.197,1.45-0.398
				C110.814,11.601,110.386,12.046,109.893,12.402z"/>
		</g>
	</g>
	<g>
		<g>
			<path fill="#E5E5E5" d="M90,30v30h30V30H90z M109.893,42.402c0.005,0.108,0.007,0.217,0.007,0.327
				c0,3.336-2.539,7.183-7.183,7.183c-1.426,0-2.753-0.418-3.87-1.134c0.197,0.023,0.398,0.035,0.602,0.035
				c1.183,0,2.271-0.404,3.135-1.081c-1.105-0.02-2.037-0.75-2.358-1.753c0.154,0.029,0.312,0.045,0.475,0.045
				c0.23,0,0.453-0.031,0.665-0.089c-1.155-0.232-2.025-1.252-2.025-2.475c0-0.011,0-0.021,0-0.032
				c0.34,0.189,0.73,0.303,1.143,0.316c-0.677-0.453-1.123-1.225-1.123-2.101c0-0.463,0.124-0.896,0.342-1.269
				c1.245,1.527,3.105,2.532,5.203,2.638c-0.043-0.185-0.065-0.377-0.065-0.575c0-1.394,1.13-2.524,2.525-2.524
				c0.726,0,1.382,0.307,1.843,0.797c0.575-0.113,1.115-0.323,1.603-0.613c-0.188,0.589-0.589,1.084-1.11,1.397
				c0.511-0.061,0.997-0.197,1.45-0.398C110.814,41.601,110.386,42.046,109.893,42.402z"/>
		</g>
	</g>
</g>
<g id="Instagram">
	<g opacity="0.85">
		<polygon fill="#010102" points="78.621,12.799 78.621,11.323 78.621,11.103 78.399,11.103 76.924,11.108 76.929,12.805 		"/>
		<path fill="#010102" d="M77.511,14.955c0,1.509-1.228,2.737-2.737,2.737c-1.509,0-2.737-1.228-2.737-2.737
			c0-0.363,0.072-0.71,0.202-1.027h-1.494v4.098c0,0.529,0.43,0.959,0.959,0.959h6.141c0.529,0,0.959-0.43,0.959-0.959v-4.098
			h-1.494C77.438,14.245,77.511,14.591,77.511,14.955z"/>
		<path fill="#010102" d="M74.774,16.716c0.971,0,1.762-0.79,1.762-1.761c0-0.384-0.125-0.738-0.334-1.027
			c-0.32-0.444-0.84-0.735-1.428-0.735c-0.588,0-1.108,0.291-1.428,0.735c-0.209,0.29-0.333,0.644-0.333,1.027
			C73.012,15.926,73.803,16.716,74.774,16.716z"/>
		<path fill="#010102" d="M60,0v30h30V0H60z M79.779,13.927v4.098c0,1.067-0.868,1.934-1.935,1.934h-6.141
			c-1.067,0-1.935-0.868-1.935-1.934v-4.098v-2.043c0-1.067,0.868-1.934,1.935-1.934h6.141c1.067,0,1.935,0.867,1.935,1.934V13.927z
			"/>
	</g>
	<g>
		<polygon fill="#E5E5E5" points="78.621,42.799 78.621,41.323 78.621,41.103 78.399,41.103 76.924,41.108 76.929,42.805 		"/>
		<path fill="#E5E5E5" d="M77.511,44.955c0,1.509-1.228,2.737-2.737,2.737c-1.509,0-2.737-1.228-2.737-2.737
			c0-0.363,0.072-0.71,0.202-1.027h-1.494v4.098c0,0.529,0.43,0.959,0.959,0.959h6.141c0.529,0,0.959-0.43,0.959-0.959v-4.098
			h-1.494C77.438,44.245,77.511,44.591,77.511,44.955z"/>
		<path fill="#E5E5E5" d="M74.774,46.716c0.971,0,1.762-0.79,1.762-1.761c0-0.384-0.125-0.738-0.334-1.027
			c-0.32-0.444-0.84-0.735-1.428-0.735c-0.588,0-1.108,0.291-1.428,0.735c-0.209,0.29-0.333,0.644-0.333,1.027
			C73.012,45.926,73.803,46.716,74.774,46.716z"/>
		<path fill="#E5E5E5" d="M60,30v30h30V30H60z M79.779,43.927v4.098c0,1.067-0.868,1.934-1.935,1.934h-6.141
			c-1.067,0-1.935-0.868-1.935-1.934v-4.098v-2.043c0-1.067,0.868-1.934,1.935-1.934h6.141c1.067,0,1.935,0.867,1.935,1.934V43.927z
			"/>
	</g>
</g>
<g id="Facebook">
	<g opacity="0.85">
		<g>
			<path fill="#010102" d="M30,0v30h30V0H30z M47.597,11.66l-0.941,0c-0.738,0-0.881,0.351-0.881,0.865v1.135h1.76l-0.229,1.778
				h-1.531V20h-1.836v-4.562h-1.535v-1.778h1.535V12.35c0-1.521,0.929-2.35,2.286-2.35c0.65,0,1.209,0.048,1.372,0.07V11.66z"/>
		</g>
	</g>
	<g>
		<g>
			<path fill="#E5E5E5" d="M30,30v30h30V30H30z M47.597,41.66l-0.941,0c-0.738,0-0.881,0.351-0.881,0.865v1.135h1.76l-0.229,1.778
				h-1.531V50h-1.836v-4.562h-1.535v-1.778h1.535V42.35c0-1.521,0.929-2.35,2.286-2.35c0.65,0,1.209,0.048,1.372,0.07V41.66z"/>
		</g>
	</g>
</g>
<g id="Email">
	<path opacity="0.85" fill="#010102" d="M0,0v30h30V0H0z M9.053,11.073c1.982,0,3.965,0,5.947,0s3.965,0,5.947,0
		c0.111,0,0.132,0.14,0.053,0.199c-1.983,1.486-3.965,2.971-5.947,4.457c-0.013,0.01-0.033,0.015-0.053,0.015
		c-0.02,0-0.039-0.005-0.052-0.015c-1.982-1.486-3.965-2.971-5.947-4.457C8.921,11.212,8.942,11.073,9.053,11.073z M21.051,18.821
		c0,0.058-0.047,0.107-0.104,0.107c-1.982,0-3.965,0-5.947,0s-3.965,0-5.947,0c-0.057,0-0.104-0.048-0.104-0.107
		c0-2.145,0-4.29,0-6.436c0-0.075,0.091-0.142,0.157-0.092c1.965,1.473,3.93,2.945,5.895,4.418c1.965-1.473,3.93-2.945,5.895-4.418
		c0.066-0.049,0.157,0.017,0.157,0.092C21.051,14.53,21.051,16.675,21.051,18.821z"/>
	<path fill="#E5E5E5" d="M0,30v30h30V30H0z M9.053,41.073c1.982,0,3.965,0,5.947,0s3.965,0,5.947,0c0.111,0,0.132,0.14,0.053,0.199
		c-1.983,1.486-3.965,2.971-5.947,4.457c-0.013,0.01-0.033,0.015-0.053,0.015c-0.02,0-0.039-0.005-0.052-0.015
		c-1.982-1.486-3.965-2.971-5.947-4.457C8.921,41.212,8.942,41.073,9.053,41.073z M21.051,48.821c0,0.058-0.047,0.107-0.104,0.107
		c-1.982,0-3.965,0-5.947,0s-3.965,0-5.947,0c-0.057,0-0.104-0.048-0.104-0.107c0-2.145,0-4.29,0-6.436
		c0-0.075,0.091-0.142,0.157-0.092c1.965,1.473,3.93,2.945,5.895,4.418c1.965-1.473,3.93-2.945,5.895-4.418
		c0.066-0.049,0.157,0.017,0.157,0.092C21.051,44.53,21.051,46.675,21.051,48.821z"/>
</g>
</svg>
